<svg version="1.2" baseProfile="tiny-ps" xmlns="http://www.w3.org/2000/svg" viewBox="0 0 362 512" width="362" height="512">
	<title>html5-with-wordmark-color-svg</title>
	<style>
		tspan { white-space:pre }
		.shp0 { fill: #000000 } 
		.shp1 { fill: #e34e26 } 
		.shp2 { fill: #ef662a } 
		.shp3 { fill: #ffffff } 
		.shp4 { fill: #ebebeb } 
	</style>
	<g id="Layer">
		<g id="Layer">
			<g id="Layer">
				<path id="Layer" class="shp0" d="M33.38 0L56.46 0L56.46 22.8L77.57 22.8L77.57 0L100.65 0L100.65 69.04L77.57 69.04L77.57 45.92L56.46 45.92L56.46 69.04L33.38 69.04L33.38 0L33.38 0Z" />
				<path id="Layer" class="shp0" d="M130.99 22.9L110.68 22.9L110.68 0L174.4 0L174.4 22.9L154.07 22.9L154.07 69.04L131 69.04L130.99 22.9L130.99 22.9Z" />
				<path id="Layer" class="shp0" d="M184.51 0L208.57 0L223.38 24.26L238.16 0L262.24 0L262.24 69.04L239.25 69.04L239.25 34.82L223.38 59.37L222.98 59.37L207.09 34.82L207.09 69.04L184.51 69.04L184.51 0L184.51 0Z" />
				<path id="Layer" class="shp0" d="M273.72 0L296.8 0L296.8 46.22L329.26 46.22L329.26 69.04L273.72 69.04L273.72 0Z" />
			</g>
		</g>
	</g>
	<g id="Guides_to_delete">
		<g id="Layer">
			<path id="Layer" class="shp1" d="M32.13 470.73L-0.99 99.3L362.7 99.3L329.55 470.75L180.77 512L32.13 470.73Z" />
			<path id="Layer" class="shp2" d="M180.86 129.66L180.86 480.45L301.16 447.1L329.51 129.66L180.86 129.66Z" />
			<path id="Layer" class="shp3" d="M66.76 175.22L79.04 312.98L236.94 312.98L231.64 372.07L180.8 385.81L130.06 372.08L126.66 334.15L80.94 334.15L87.48 407.28L180.79 433.2L274.22 407.28L286.74 267.43L120.71 267.43L116.54 220.78L290.73 220.78L290.87 220.78L294.95 175.22L66.76 175.22Z" />
			<g id="Layer">
				<path id="Layer" class="shp4" d="M180.86 175.22L66.76 175.22L79.04 312.98L180.86 312.98L180.86 267.43L120.71 267.43L116.54 220.78L180.86 220.78L180.86 175.22Z" />
				<path id="Layer" class="shp4" d="M180.86 385.79L180.8 385.81L130.06 372.08L126.66 334.15L80.94 334.15L87.48 407.28L180.79 433.2L180.86 433.18L180.86 385.79Z" />
			</g>
		</g>
	</g>
</svg>
