<?xml version="1.0" standalone="no"?>
<svg xmlns:xlink="http://www.w3.org/1999/xlink" id="wave" style="transform:rotate(0deg); transition: 0.3s" viewBox="0 0 1440 490" version="1.1" xmlns="http://www.w3.org/2000/svg"><defs><linearGradient id="sw-gradient-0" x1="0" x2="0" y1="1" y2="0"><stop stop-color="rgba(32.869, 92.499, 173.463, 1)" offset="0%"/><stop stop-color="rgba(4.98, 3.977, 1.759, 1)" offset="100%"/></linearGradient></defs><path style="transform:translate(0, 0px); opacity:1" fill="url(#sw-gradient-0)" d="M0,441L30,441C60,441,120,441,180,441C240,441,300,441,360,392C420,343,480,245,540,220.5C600,196,660,245,720,245C780,245,840,196,900,204.2C960,212,1020,278,1080,310.3C1140,343,1200,343,1260,302.2C1320,261,1380,180,1440,196C1500,212,1560,327,1620,359.3C1680,392,1740,343,1800,326.7C1860,310,1920,327,1980,343C2040,359,2100,376,2160,383.8C2220,392,2280,392,2340,392C2400,392,2460,392,2520,383.8C2580,376,2640,359,2700,294C2760,229,2820,114,2880,73.5C2940,33,3000,65,3060,89.8C3120,114,3180,131,3240,163.3C3300,196,3360,245,3420,285.8C3480,327,3540,359,3600,383.8C3660,408,3720,425,3780,375.7C3840,327,3900,212,3960,155.2C4020,98,4080,98,4140,130.7C4200,163,4260,229,4290,261.3L4320,294L4320,490L4290,490C4260,490,4200,490,4140,490C4080,490,4020,490,3960,490C3900,490,3840,490,3780,490C3720,490,3660,490,3600,490C3540,490,3480,490,3420,490C3360,490,3300,490,3240,490C3180,490,3120,490,3060,490C3000,490,2940,490,2880,490C2820,490,2760,490,2700,490C2640,490,2580,490,2520,490C2460,490,2400,490,2340,490C2280,490,2220,490,2160,490C2100,490,2040,490,1980,490C1920,490,1860,490,1800,490C1740,490,1680,490,1620,490C1560,490,1500,490,1440,490C1380,490,1320,490,1260,490C1200,490,1140,490,1080,490C1020,490,960,490,900,490C840,490,780,490,720,490C660,490,600,490,540,490C480,490,420,490,360,490C300,490,240,490,180,490C120,490,60,490,30,490L0,490Z"/><defs><linearGradient id="sw-gradient-1" x1="0" x2="0" y1="1" y2="0"><stop stop-color="rgba(45.843, 94.017, 234.936, 1)" offset="0%"/><stop stop-color="rgba(1.276, 1.543, 2.704, 1)" offset="100%"/></linearGradient></defs><path style="transform:translate(0, 50px); opacity:0.9" fill="url(#sw-gradient-1)" d="M0,147L30,122.5C60,98,120,49,180,49C240,49,300,98,360,122.5C420,147,480,147,540,187.8C600,229,660,310,720,334.8C780,359,840,327,900,277.7C960,229,1020,163,1080,138.8C1140,114,1200,131,1260,187.8C1320,245,1380,343,1440,343C1500,343,1560,245,1620,228.7C1680,212,1740,278,1800,261.3C1860,245,1920,147,1980,138.8C2040,131,2100,212,2160,269.5C2220,327,2280,359,2340,318.5C2400,278,2460,163,2520,138.8C2580,114,2640,180,2700,179.7C2760,180,2820,114,2880,114.3C2940,114,3000,180,3060,187.8C3120,196,3180,147,3240,138.8C3300,131,3360,163,3420,155.2C3480,147,3540,98,3600,106.2C3660,114,3720,180,3780,236.8C3840,294,3900,343,3960,302.2C4020,261,4080,131,4140,122.5C4200,114,4260,229,4290,285.8L4320,343L4320,490L4290,490C4260,490,4200,490,4140,490C4080,490,4020,490,3960,490C3900,490,3840,490,3780,490C3720,490,3660,490,3600,490C3540,490,3480,490,3420,490C3360,490,3300,490,3240,490C3180,490,3120,490,3060,490C3000,490,2940,490,2880,490C2820,490,2760,490,2700,490C2640,490,2580,490,2520,490C2460,490,2400,490,2340,490C2280,490,2220,490,2160,490C2100,490,2040,490,1980,490C1920,490,1860,490,1800,490C1740,490,1680,490,1620,490C1560,490,1500,490,1440,490C1380,490,1320,490,1260,490C1200,490,1140,490,1080,490C1020,490,960,490,900,490C840,490,780,490,720,490C660,490,600,490,540,490C480,490,420,490,360,490C300,490,240,490,180,490C120,490,60,490,30,490L0,490Z"/><defs><linearGradient id="sw-gradient-2" x1="0" x2="0" y1="1" y2="0"><stop stop-color="rgba(33.351, 30.851, 184.847, 1)" offset="0%"/><stop stop-color="rgba(59.623, 50.862, 31.495, 1)" offset="100%"/></linearGradient></defs><path style="transform:translate(0, 100px); opacity:0.8" fill="url(#sw-gradient-2)" d="M0,343L30,326.7C60,310,120,278,180,228.7C240,180,300,114,360,122.5C420,131,480,212,540,236.8C600,261,660,229,720,187.8C780,147,840,98,900,81.7C960,65,1020,82,1080,81.7C1140,82,1200,65,1260,81.7C1320,98,1380,147,1440,147C1500,147,1560,98,1620,130.7C1680,163,1740,278,1800,302.2C1860,327,1920,261,1980,204.2C2040,147,2100,98,2160,81.7C2220,65,2280,82,2340,98C2400,114,2460,131,2520,163.3C2580,196,2640,245,2700,236.8C2760,229,2820,163,2880,138.8C2940,114,3000,131,3060,163.3C3120,196,3180,245,3240,277.7C3300,310,3360,327,3420,277.7C3480,229,3540,114,3600,114.3C3660,114,3720,229,3780,261.3C3840,294,3900,245,3960,212.3C4020,180,4080,163,4140,130.7C4200,98,4260,49,4290,24.5L4320,0L4320,490L4290,490C4260,490,4200,490,4140,490C4080,490,4020,490,3960,490C3900,490,3840,490,3780,490C3720,490,3660,490,3600,490C3540,490,3480,490,3420,490C3360,490,3300,490,3240,490C3180,490,3120,490,3060,490C3000,490,2940,490,2880,490C2820,490,2760,490,2700,490C2640,490,2580,490,2520,490C2460,490,2400,490,2340,490C2280,490,2220,490,2160,490C2100,490,2040,490,1980,490C1920,490,1860,490,1800,490C1740,490,1680,490,1620,490C1560,490,1500,490,1440,490C1380,490,1320,490,1260,490C1200,490,1140,490,1080,490C1020,490,960,490,900,490C840,490,780,490,720,490C660,490,600,490,540,490C480,490,420,490,360,490C300,490,240,490,180,490C120,490,60,490,30,490L0,490Z"/><defs><linearGradient id="sw-gradient-3" x1="0" x2="0" y1="1" y2="0"><stop stop-color="rgba(18.179, 73.52, 173.463, 1)" offset="0%"/><stop stop-color="rgba(4.643, 83.666, 96.052, 1)" offset="100%"/></linearGradient></defs><path style="transform:translate(0, 150px); opacity:0.7" fill="url(#sw-gradient-3)" d="M0,343L30,318.5C60,294,120,245,180,245C240,245,300,294,360,326.7C420,359,480,376,540,392C600,408,660,425,720,424.7C780,425,840,408,900,334.8C960,261,1020,131,1080,122.5C1140,114,1200,229,1260,277.7C1320,327,1380,310,1440,285.8C1500,261,1560,229,1620,236.8C1680,245,1740,294,1800,294C1860,294,1920,245,1980,212.3C2040,180,2100,163,2160,196C2220,229,2280,310,2340,285.8C2400,261,2460,131,2520,106.2C2580,82,2640,163,2700,171.5C2760,180,2820,114,2880,106.2C2940,98,3000,147,3060,171.5C3120,196,3180,196,3240,196C3300,196,3360,196,3420,179.7C3480,163,3540,131,3600,147C3660,163,3720,229,3780,261.3C3840,294,3900,294,3960,269.5C4020,245,4080,196,4140,212.3C4200,229,4260,310,4290,351.2L4320,392L4320,490L4290,490C4260,490,4200,490,4140,490C4080,490,4020,490,3960,490C3900,490,3840,490,3780,490C3720,490,3660,490,3600,490C3540,490,3480,490,3420,490C3360,490,3300,490,3240,490C3180,490,3120,490,3060,490C3000,490,2940,490,2880,490C2820,490,2760,490,2700,490C2640,490,2580,490,2520,490C2460,490,2400,490,2340,490C2280,490,2220,490,2160,490C2100,490,2040,490,1980,490C1920,490,1860,490,1800,490C1740,490,1680,490,1620,490C1560,490,1500,490,1440,490C1380,490,1320,490,1260,490C1200,490,1140,490,1080,490C1020,490,960,490,900,490C840,490,780,490,720,490C660,490,600,490,540,490C480,490,420,490,360,490C300,490,240,490,180,490C120,490,60,490,30,490L0,490Z"/></svg>